<mxfile host="app.diagrams.net" agent="Mozilla/5.0 (Windows NT 10.0; Win64; x64) AppleWebKit/537.36 (KHTML, like Gecko) Chrome/139.0.0.0 Safari/537.36" version="28.1.2">
  <diagram name="Page-1" id="c4acf3e9-155e-7222-9cf6-157b1a14988f">
    <mxGraphModel dx="2570" dy="1385" grid="1" gridSize="10" guides="1" tooltips="1" connect="1" arrows="1" fold="1" page="1" pageScale="1" pageWidth="1920" pageHeight="1080" background="#ffffff" math="0" shadow="0">
      <root>
        <mxCell id="0" />
        <mxCell id="1" parent="0" />
        <mxCell id="Admin" value="&lt;div style=&quot;text-align: center;&quot;&gt;&lt;b style=&quot;background-color: transparent; color: light-dark(rgb(0, 0, 0), rgb(255, 255, 255));&quot;&gt;Admin&lt;/b&gt;&lt;/div&gt;&lt;div style=&quot;text-align: center;&quot;&gt;&lt;span style=&quot;background-color: transparent; color: light-dark(rgb(0, 0, 0), rgb(255, 255, 255));&quot;&gt;—&lt;/span&gt;&lt;span style=&quot;background-color: transparent; color: light-dark(rgb(0, 0, 0), rgb(255, 255, 255)); text-align: left;&quot;&gt;—&lt;/span&gt;&lt;span style=&quot;background-color: transparent; color: light-dark(rgb(0, 0, 0), rgb(255, 255, 255)); text-align: left;&quot;&gt;—&lt;/span&gt;&lt;span style=&quot;background-color: transparent; color: light-dark(rgb(0, 0, 0), rgb(255, 255, 255)); text-align: left;&quot;&gt;—&lt;/span&gt;&lt;span style=&quot;background-color: transparent; color: light-dark(rgb(0, 0, 0), rgb(255, 255, 255)); text-align: left;&quot;&gt;—&lt;/span&gt;&lt;span style=&quot;background-color: transparent; color: light-dark(rgb(0, 0, 0), rgb(255, 255, 255)); text-align: left;&quot;&gt;—&lt;/span&gt;&lt;span style=&quot;background-color: transparent; color: light-dark(rgb(0, 0, 0), rgb(255, 255, 255)); text-align: left;&quot;&gt;—&lt;/span&gt;&lt;span style=&quot;background-color: transparent; color: light-dark(rgb(0, 0, 0), rgb(255, 255, 255)); text-align: left;&quot;&gt;—&lt;/span&gt;&lt;/div&gt;id: Long&lt;br&gt;&lt;div&gt;emai: String&lt;/div&gt;&lt;div&gt;password:String&lt;/div&gt;&lt;div&gt;role: Role&lt;/div&gt;" style="shape=rectangle;whiteSpace=wrap;html=1;rounded=0;strokeWidth=1;fillColor=#dae8fc;strokeColor=#6c8ebf;shadow=1;glass=0;spacingLeft=10;spacingRight=10;align=left;" parent="1" vertex="1">
          <mxGeometry x="600" y="150" width="120" height="130" as="geometry" />
        </mxCell>
        <mxCell id="AccountHolder" value="&lt;div style=&quot;text-align: center;&quot;&gt;&lt;b style=&quot;background-color: transparent; color: light-dark(rgb(0, 0, 0), rgb(255, 255, 255));&quot;&gt;AccountHolder&lt;/b&gt;&lt;/div&gt;&lt;div style=&quot;&quot;&gt;&lt;span style=&quot;background-color: transparent; color: light-dark(rgb(0, 0, 0), rgb(255, 255, 255)); text-align: left;&quot;&gt;—&lt;/span&gt;&lt;span style=&quot;background-color: transparent; color: light-dark(rgb(0, 0, 0), rgb(255, 255, 255)); text-align: left;&quot;&gt;—&lt;/span&gt;&lt;span style=&quot;background-color: transparent; color: light-dark(rgb(0, 0, 0), rgb(255, 255, 255)); text-align: left;&quot;&gt;—&lt;/span&gt;&lt;span style=&quot;background-color: transparent; color: light-dark(rgb(0, 0, 0), rgb(255, 255, 255)); text-align: left;&quot;&gt;—&lt;/span&gt;&lt;span style=&quot;background-color: transparent; color: light-dark(rgb(0, 0, 0), rgb(255, 255, 255)); text-align: left;&quot;&gt;—&lt;/span&gt;&lt;span style=&quot;background-color: transparent; color: light-dark(rgb(0, 0, 0), rgb(255, 255, 255)); text-align: left;&quot;&gt;—&lt;/span&gt;&lt;span style=&quot;background-color: transparent; color: light-dark(rgb(0, 0, 0), rgb(255, 255, 255)); text-align: left;&quot;&gt;—&lt;/span&gt;&lt;span style=&quot;background-color: transparent; color: light-dark(rgb(0, 0, 0), rgb(255, 255, 255)); text-align: left;&quot;&gt;—&lt;/span&gt;&lt;span style=&quot;background-color: transparent; color: light-dark(rgb(0, 0, 0), rgb(255, 255, 255)); text-align: left;&quot;&gt;—&lt;/span&gt;&lt;span style=&quot;background-color: transparent; color: light-dark(rgb(0, 0, 0), rgb(255, 255, 255));&quot;&gt;—&lt;/span&gt;&lt;span style=&quot;background-color: transparent; color: light-dark(rgb(0, 0, 0), rgb(255, 255, 255));&quot;&gt;—&lt;/span&gt;&lt;span style=&quot;background-color: transparent; color: light-dark(rgb(0, 0, 0), rgb(255, 255, 255));&quot;&gt;—&lt;/span&gt;&lt;/div&gt;&lt;div style=&quot;&quot;&gt;id: Long&lt;br&gt;&lt;/div&gt;&lt;div style=&quot;&quot;&gt;&lt;span style=&quot;background-color: transparent; color: light-dark(rgb(0, 0, 0), rgb(255, 255, 255));&quot;&gt;name: String&lt;/span&gt;&lt;/div&gt;&lt;div style=&quot;&quot;&gt;&lt;div&gt;creationDate: LocalDate&lt;/div&gt;&lt;div&gt;role: Role&lt;br&gt;status:&amp;nbsp;&lt;span style=&quot;font-family: &amp;quot;JetBrains Mono&amp;quot;, monospace; background-color: light-dark(rgb(248, 206, 204), rgb(237, 237, 237));&quot;&gt;&lt;font style=&quot;color: rgb(0, 0, 0);&quot;&gt;UserStatus&lt;/font&gt;&lt;/span&gt;&lt;/div&gt;&lt;/div&gt;dateOfBirth: LocalDate&lt;br&gt;primaryAddress: Address&lt;br&gt;mailingAddress: Address?" style="shape=rectangle;whiteSpace=wrap;html=1;rounded=0;strokeWidth=1;fillColor=#dae8fc;strokeColor=#6c8ebf;spacingLeft=10;spacingRight=10;labelPosition=center;verticalLabelPosition=middle;align=left;verticalAlign=middle;" parent="1" vertex="1">
          <mxGeometry x="620" y="550" width="170" height="140" as="geometry" />
        </mxCell>
        <mxCell id="ThirdParty" value="&lt;div style=&quot;text-align: center;&quot;&gt;&lt;b style=&quot;background-color: transparent; color: light-dark(rgb(0, 0, 0), rgb(255, 255, 255));&quot;&gt;ThirdParty&lt;/b&gt;&lt;/div&gt;&lt;div style=&quot;&quot;&gt;—&lt;span style=&quot;background-color: transparent; color: light-dark(rgb(0, 0, 0), rgb(255, 255, 255));&quot;&gt;—&lt;/span&gt;&lt;span style=&quot;background-color: transparent; color: light-dark(rgb(0, 0, 0), rgb(255, 255, 255));&quot;&gt;—&lt;/span&gt;&lt;span style=&quot;background-color: transparent; color: light-dark(rgb(0, 0, 0), rgb(255, 255, 255));&quot;&gt;—&lt;/span&gt;&lt;span style=&quot;background-color: transparent; color: light-dark(rgb(0, 0, 0), rgb(255, 255, 255));&quot;&gt;—&lt;/span&gt;&lt;span style=&quot;background-color: transparent; color: light-dark(rgb(0, 0, 0), rgb(255, 255, 255));&quot;&gt;—&lt;/span&gt;&lt;span style=&quot;background-color: transparent; color: light-dark(rgb(0, 0, 0), rgb(255, 255, 255));&quot;&gt;—&lt;/span&gt;&lt;span style=&quot;background-color: transparent; color: light-dark(rgb(0, 0, 0), rgb(255, 255, 255));&quot;&gt;—&lt;/span&gt;&lt;span style=&quot;background-color: transparent; color: light-dark(rgb(0, 0, 0), rgb(255, 255, 255));&quot;&gt;—&lt;/span&gt;&lt;/div&gt;&lt;div&gt;id: Long&lt;br&gt;&lt;/div&gt;name: String&lt;br&gt;hashedKey: String&lt;div&gt;role: Role&lt;/div&gt;" style="shape=rectangle;whiteSpace=wrap;html=1;rounded=0;strokeWidth=1;fillColor=#dae8fc;strokeColor=#6c8ebf;align=left;spacingLeft=10;spacingRight=10;" parent="1" vertex="1">
          <mxGeometry x="650" y="335" width="130" height="110" as="geometry" />
        </mxCell>
        <mxCell id="Address" value="&lt;div style=&quot;text-align: center;&quot;&gt;&lt;b style=&quot;background-color: transparent; color: light-dark(rgb(0, 0, 0), rgb(255, 255, 255));&quot;&gt;Address&lt;/b&gt;&lt;/div&gt;&lt;div style=&quot;text-align: center;&quot;&gt;&lt;span style=&quot;background-color: transparent; color: light-dark(rgb(0, 0, 0), rgb(255, 255, 255));&quot;&gt;———————&lt;/span&gt;&lt;/div&gt;&lt;div style=&quot;&quot;&gt;&lt;span style=&quot;background-color: transparent; color: light-dark(rgb(0, 0, 0), rgb(255, 255, 255));&quot;&gt;street: String&lt;/span&gt;&lt;/div&gt;city: String&lt;br&gt;country: String" style="shape=rectangle;whiteSpace=wrap;html=1;rounded=0;strokeWidth=1;fillColor=#fff2cc;strokeColor=#d6b656;align=left;spacingLeft=10;spacingRight=10;" parent="1" vertex="1">
          <mxGeometry x="950" y="560" width="100" height="120" as="geometry" />
        </mxCell>
        <mxCell id="Account" value="&lt;div style=&quot;text-align: center;&quot;&gt;&lt;b style=&quot;background-color: transparent; color: light-dark(rgb(0, 0, 0), rgb(255, 255, 255));&quot;&gt;«abstract» Account&lt;/b&gt;&lt;/div&gt;&lt;div style=&quot;text-align: center;&quot;&gt;&lt;span style=&quot;background-color: transparent; color: light-dark(rgb(0, 0, 0), rgb(255, 255, 255));&quot;&gt;—&lt;/span&gt;&lt;span style=&quot;background-color: transparent; color: light-dark(rgb(0, 0, 0), rgb(255, 255, 255)); text-align: left;&quot;&gt;—&lt;/span&gt;&lt;span style=&quot;background-color: transparent; color: light-dark(rgb(0, 0, 0), rgb(255, 255, 255)); text-align: left;&quot;&gt;—&lt;/span&gt;&lt;span style=&quot;background-color: transparent; color: light-dark(rgb(0, 0, 0), rgb(255, 255, 255)); text-align: left;&quot;&gt;—&lt;/span&gt;&lt;span style=&quot;background-color: transparent; color: light-dark(rgb(0, 0, 0), rgb(255, 255, 255)); text-align: left;&quot;&gt;—&lt;/span&gt;&lt;span style=&quot;background-color: transparent; color: light-dark(rgb(0, 0, 0), rgb(255, 255, 255)); text-align: left;&quot;&gt;—&lt;/span&gt;&lt;span style=&quot;background-color: transparent; color: light-dark(rgb(0, 0, 0), rgb(255, 255, 255)); text-align: left;&quot;&gt;—&lt;/span&gt;&lt;span style=&quot;background-color: transparent; color: light-dark(rgb(0, 0, 0), rgb(255, 255, 255)); text-align: left;&quot;&gt;—&lt;/span&gt;&lt;span style=&quot;background-color: transparent; color: light-dark(rgb(0, 0, 0), rgb(255, 255, 255)); text-align: left;&quot;&gt;—&lt;/span&gt;&lt;span style=&quot;background-color: transparent; color: light-dark(rgb(0, 0, 0), rgb(255, 255, 255)); text-align: left;&quot;&gt;—&lt;/span&gt;&lt;span style=&quot;background-color: transparent; color: light-dark(rgb(0, 0, 0), rgb(255, 255, 255)); text-align: left;&quot;&gt;—&lt;/span&gt;&lt;span style=&quot;background-color: transparent; color: light-dark(rgb(0, 0, 0), rgb(255, 255, 255)); text-align: left;&quot;&gt;—&lt;/span&gt;&lt;span style=&quot;background-color: transparent; color: light-dark(rgb(0, 0, 0), rgb(255, 255, 255)); text-align: left;&quot;&gt;—&lt;/span&gt;&lt;span style=&quot;background-color: transparent; color: light-dark(rgb(0, 0, 0), rgb(255, 255, 255)); text-align: left;&quot;&gt;—&lt;/span&gt;&lt;span style=&quot;background-color: transparent; color: light-dark(rgb(0, 0, 0), rgb(255, 255, 255)); text-align: left;&quot;&gt;—&lt;/span&gt;&lt;span style=&quot;background-color: transparent; color: light-dark(rgb(0, 0, 0), rgb(255, 255, 255)); text-align: left;&quot;&gt;—&lt;/span&gt;&lt;span style=&quot;background-color: transparent; color: light-dark(rgb(0, 0, 0), rgb(255, 255, 255)); text-align: left;&quot;&gt;—&lt;/span&gt;&lt;/div&gt;id: Long&lt;br&gt;balance: Money&lt;br&gt;secretKey: String&lt;br&gt;creationDate: LocalDate&lt;br&gt;status: &lt;font style=&quot;background-color: light-dark(rgb(248, 206, 204), rgb(237, 237, 237)); color: light-dark(rgb(0, 0, 0), rgb(237, 237, 237));&quot;&gt;AccountStatus&lt;/font&gt;&lt;br&gt;penaltyFee: Money = 40&lt;br&gt;primaryOwner: AccountHolder (1)&lt;br&gt;secondaryOwner: AccountHolder (0..1)" style="shape=rectangle;whiteSpace=wrap;html=1;rounded=0;strokeWidth=1;fillColor=#e1d5e7;strokeColor=#9673a6;align=left;labelPosition=center;verticalLabelPosition=middle;verticalAlign=middle;spacingLeft=10;spacingRight=10;" parent="1" vertex="1">
          <mxGeometry x="870" y="280" width="230" height="210" as="geometry" />
        </mxCell>
        <mxCell id="Checking" value="&lt;div style=&quot;text-align: center;&quot;&gt;&lt;b style=&quot;background-color: transparent; color: light-dark(rgb(0, 0, 0), rgb(255, 255, 255));&quot;&gt;Checking&lt;/b&gt;&lt;/div&gt;—————————————————&lt;br&gt;minimumBalance: Money = 250&lt;br&gt;monthlyMaintenanceFee: Money = 12" style="shape=rectangle;whiteSpace=wrap;html=1;rounded=0;strokeWidth=1;fillColor=#d5e8d4;strokeColor=#82b366;align=left;spacingLeft=10;spacingRight=10;" parent="1" vertex="1">
          <mxGeometry x="1220" y="170" width="230" height="110" as="geometry" />
        </mxCell>
        <mxCell id="StudentChecking" value="&lt;div style=&quot;text-align: center;&quot;&gt;&lt;b style=&quot;background-color: transparent; color: light-dark(rgb(0, 0, 0), rgb(255, 255, 255));&quot;&gt;StudentChecking&lt;/b&gt;&lt;/div&gt;&lt;div style=&quot;text-align: center;&quot;&gt;&lt;span style=&quot;background-color: transparent; color: light-dark(rgb(0, 0, 0), rgb(255, 255, 255));&quot;&gt;—&lt;/span&gt;&lt;span style=&quot;background-color: transparent; color: light-dark(rgb(0, 0, 0), rgb(255, 255, 255)); text-align: left;&quot;&gt;—&lt;/span&gt;&lt;span style=&quot;background-color: transparent; color: light-dark(rgb(0, 0, 0), rgb(255, 255, 255)); text-align: left;&quot;&gt;—&lt;/span&gt;&lt;span style=&quot;background-color: transparent; color: light-dark(rgb(0, 0, 0), rgb(255, 255, 255)); text-align: left;&quot;&gt;—&lt;/span&gt;&lt;span style=&quot;background-color: transparent; color: light-dark(rgb(0, 0, 0), rgb(255, 255, 255)); text-align: left;&quot;&gt;—&lt;/span&gt;&lt;span style=&quot;background-color: transparent; color: light-dark(rgb(0, 0, 0), rgb(255, 255, 255)); text-align: left;&quot;&gt;—&lt;/span&gt;&lt;span style=&quot;background-color: transparent; color: light-dark(rgb(0, 0, 0), rgb(255, 255, 255)); text-align: left;&quot;&gt;—&lt;/span&gt;&lt;span style=&quot;background-color: transparent; color: light-dark(rgb(0, 0, 0), rgb(255, 255, 255)); text-align: left;&quot;&gt;—&lt;/span&gt;&lt;span style=&quot;background-color: transparent; color: light-dark(rgb(0, 0, 0), rgb(255, 255, 255)); text-align: left;&quot;&gt;—&lt;/span&gt;&lt;span style=&quot;background-color: transparent; color: light-dark(rgb(0, 0, 0), rgb(255, 255, 255)); text-align: left;&quot;&gt;—&lt;/span&gt;&lt;span style=&quot;background-color: transparent; color: light-dark(rgb(0, 0, 0), rgb(255, 255, 255)); text-align: left;&quot;&gt;—&lt;/span&gt;&lt;span style=&quot;background-color: transparent; color: light-dark(rgb(0, 0, 0), rgb(255, 255, 255)); text-align: left;&quot;&gt;—&lt;/span&gt;&lt;span style=&quot;background-color: transparent; color: light-dark(rgb(0, 0, 0), rgb(255, 255, 255)); text-align: left;&quot;&gt;—&lt;/span&gt;&lt;/div&gt;(no minimumBalance)&lt;br&gt;(no monthlyMaintenanceFee)" style="shape=rectangle;whiteSpace=wrap;html=1;rounded=0;strokeWidth=1;fillColor=#d5e8d4;strokeColor=#82b366;spacingLeft=10;spacingRight=10;align=left;" parent="1" vertex="1">
          <mxGeometry x="1220" y="320" width="180" height="110" as="geometry" />
        </mxCell>
        <mxCell id="Savings" value="&lt;div style=&quot;text-align: center;&quot;&gt;&lt;b style=&quot;background-color: transparent; color: light-dark(rgb(0, 0, 0), rgb(255, 255, 255));&quot;&gt;Savings&lt;/b&gt;&lt;/div&gt;———————————————————————&lt;br&gt;minimumBalance: Money (default 1000, min 100)&lt;br&gt;interestRate: BigDecimal (default 0.0025, max 0.5)" style="shape=rectangle;whiteSpace=wrap;html=1;rounded=0;strokeWidth=1;fillColor=#d5e8d4;strokeColor=#82b366;spacingLeft=10;spacingRight=10;align=left;" parent="1" vertex="1">
          <mxGeometry x="1220" y="480" width="300" height="120" as="geometry" />
        </mxCell>
        <mxCell id="CreditCard" value="&lt;div style=&quot;text-align: center;&quot;&gt;&lt;b style=&quot;background-color: transparent; color: light-dark(rgb(0, 0, 0), rgb(255, 255, 255));&quot;&gt;CreditCard&lt;/b&gt;&lt;/div&gt;————————————————————&lt;br&gt;creditLimit: Money (default 100, max 100000)&lt;br&gt;interestRate: BigDecimal (default 0.2, min 0.1)&lt;br&gt;penaltyFee: Money" style="shape=rectangle;whiteSpace=wrap;html=1;rounded=0;strokeWidth=1;fillColor=#d5e8d4;strokeColor=#82b366;align=left;spacingLeft=10;spacingRight=10;" parent="1" vertex="1">
          <mxGeometry x="1170" y="670" width="270" height="130" as="geometry" />
        </mxCell>
        <mxCell id="NoteAgeRule" value="&lt;b&gt;Regla de creación&lt;/b&gt;&lt;br/&gt;Si AccountHolder.age &amp;lt; 24 ⇒ StudentChecking, en caso contrario Checking" style="shape=note;whiteSpace=wrap;html=1;rounded=0;strokeWidth=1;size=20;fillColor=#fff2cc;strokeColor=#d6b656;" parent="1" vertex="1">
          <mxGeometry x="810" y="185" width="360" height="80" as="geometry" />
        </mxCell>
        <mxCell id="edge-StudentChecking-Account" value="" style="endArrow=block;endFill=0;strokeWidth=1;" parent="1" source="StudentChecking" target="Account" edge="1">
          <mxGeometry relative="1" as="geometry" />
        </mxCell>
        <mxCell id="dZ8dyuiowuK2YCym3EqC-46" value="inheritance" style="edgeLabel;html=1;align=center;verticalAlign=middle;resizable=0;points=[];" vertex="1" connectable="0" parent="edge-StudentChecking-Account">
          <mxGeometry x="-0.1853" y="-2" relative="1" as="geometry">
            <mxPoint as="offset" />
          </mxGeometry>
        </mxCell>
        <mxCell id="edge-Checking-Account" value="" style="endArrow=block;endFill=0;strokeWidth=1;" parent="1" source="Checking" target="Account" edge="1">
          <mxGeometry relative="1" as="geometry" />
        </mxCell>
        <mxCell id="dZ8dyuiowuK2YCym3EqC-45" value="inheritance" style="edgeLabel;html=1;align=center;verticalAlign=middle;resizable=0;points=[];" vertex="1" connectable="0" parent="edge-Checking-Account">
          <mxGeometry x="-0.158" y="-4" relative="1" as="geometry">
            <mxPoint as="offset" />
          </mxGeometry>
        </mxCell>
        <mxCell id="edge-Savings-Account" value="" style="endArrow=block;endFill=0;strokeWidth=1;" parent="1" source="Savings" target="Account" edge="1">
          <mxGeometry relative="1" as="geometry" />
        </mxCell>
        <mxCell id="dZ8dyuiowuK2YCym3EqC-47" value="inheritance" style="edgeLabel;html=1;align=center;verticalAlign=middle;resizable=0;points=[];" vertex="1" connectable="0" parent="edge-Savings-Account">
          <mxGeometry x="0.0566" y="-4" relative="1" as="geometry">
            <mxPoint x="-1" as="offset" />
          </mxGeometry>
        </mxCell>
        <mxCell id="edge-CreditCard-Account" value="" style="endArrow=block;endFill=0;strokeWidth=1;" parent="1" source="CreditCard" target="Account" edge="1">
          <mxGeometry relative="1" as="geometry" />
        </mxCell>
        <mxCell id="dZ8dyuiowuK2YCym3EqC-48" value="inheritance" style="edgeLabel;html=1;align=center;verticalAlign=middle;resizable=0;points=[];" vertex="1" connectable="0" parent="edge-CreditCard-Account">
          <mxGeometry x="0.2332" y="2" relative="1" as="geometry">
            <mxPoint as="offset" />
          </mxGeometry>
        </mxCell>
        <mxCell id="edge-Account-AccountHolder-primary" value="primaryOwner (1)" style="endArrow=none;strokeWidth=1;" parent="1" source="Account" target="AccountHolder" edge="1">
          <mxGeometry relative="1" as="geometry" />
        </mxCell>
        <mxCell id="edge-Account-AccountHolder-secondary" value="secondaryOwner (0..1)" style="endArrow=none;dashed=1;strokeWidth=1;" parent="1" source="Account" target="AccountHolder" edge="1">
          <mxGeometry relative="1" as="geometry" />
        </mxCell>
        <mxCell id="edge-AccountHolder-Address-primary" value="primaryAddress (1)" style="endArrow=diamond;endFill=1;strokeWidth=1;" parent="1" source="AccountHolder" target="Address" edge="1">
          <mxGeometry relative="1" as="geometry" />
        </mxCell>
        <mxCell id="edge-AccountHolder-Address-mailing" value="mailingAddress (0..1)" style="endArrow=diamond;endFill=0;dashed=1;strokeWidth=1;" parent="1" source="AccountHolder" target="Address" edge="1">
          <mxGeometry relative="1" as="geometry" />
        </mxCell>
        <mxCell id="edge-Admin-Account" value="creates" style="endArrow=open;dashed=1;strokeWidth=1;fillColor=#d5e8d4;strokeColor=#82b366;" parent="1" source="Admin" target="Account" edge="1">
          <mxGeometry relative="1" as="geometry" />
        </mxCell>
        <mxCell id="edge-ThirdParty-Account" value="send/receive" style="endArrow=open;dashed=1;strokeWidth=1;" parent="1" source="ThirdParty" target="Account" edge="1">
          <mxGeometry relative="1" as="geometry" />
        </mxCell>
        <mxCell id="dZ8dyuiowuK2YCym3EqC-24" value="" style="rounded=0;whiteSpace=wrap;html=1;fillColor=#CCCCCC;" vertex="1" parent="1">
          <mxGeometry x="330" y="720" width="460" height="190" as="geometry" />
        </mxCell>
        <mxCell id="dZ8dyuiowuK2YCym3EqC-23" value="&lt;div style=&quot;text-align: center;&quot;&gt;&lt;b style=&quot;background-color: transparent; color: light-dark(rgb(0, 0, 0), rgb(255, 255, 255));&quot;&gt;«enum»&amp;nbsp;&lt;/b&gt;&lt;/div&gt;&lt;div&gt;&lt;div style=&quot;text-align: center;&quot;&gt;&lt;b style=&quot;background-color: transparent; color: light-dark(rgb(0, 0, 0), rgb(255, 255, 255));&quot;&gt;UserStatus&lt;/b&gt;&lt;/div&gt;—&lt;span style=&quot;background-color: transparent; color: light-dark(rgb(0, 0, 0), rgb(255, 255, 255));&quot;&gt;—&lt;/span&gt;&lt;span style=&quot;background-color: transparent; color: light-dark(rgb(0, 0, 0), rgb(255, 255, 255));&quot;&gt;—&lt;/span&gt;&lt;span style=&quot;background-color: transparent; color: light-dark(rgb(0, 0, 0), rgb(255, 255, 255));&quot;&gt;—&lt;/span&gt;&lt;span style=&quot;background-color: transparent; color: light-dark(rgb(0, 0, 0), rgb(255, 255, 255));&quot;&gt;—&lt;/span&gt;&lt;span style=&quot;background-color: transparent; color: light-dark(rgb(0, 0, 0), rgb(255, 255, 255));&quot;&gt;—&lt;/span&gt;&lt;span style=&quot;background-color: transparent; color: light-dark(rgb(0, 0, 0), rgb(255, 255, 255));&quot;&gt;—&lt;/span&gt;&lt;br&gt;INACTIVE&lt;/div&gt;&lt;div&gt;ACTIVE&lt;/div&gt;" style="shape=rectangle;whiteSpace=wrap;html=1;rounded=0;strokeWidth=1;fillColor=#f8cecc;strokeColor=#b85450;align=left;spacingLeft=10;spacingRight=10;" vertex="1" parent="1">
          <mxGeometry x="350" y="755" width="110" height="125" as="geometry" />
        </mxCell>
        <mxCell id="dZ8dyuiowuK2YCym3EqC-26" value="Text" style="text;html=1;align=center;verticalAlign=middle;whiteSpace=wrap;rounded=0;" vertex="1" parent="1">
          <mxGeometry x="920" y="480" width="60" height="30" as="geometry" />
        </mxCell>
        <mxCell id="dZ8dyuiowuK2YCym3EqC-30" value="&lt;div style=&quot;text-align: center;&quot;&gt;&lt;b style=&quot;background-color: transparent; color: light-dark(rgb(0, 0, 0), rgb(255, 255, 255));&quot;&gt;«enum»&amp;nbsp;&lt;/b&gt;&lt;/div&gt;&lt;div&gt;&lt;div style=&quot;text-align: center;&quot;&gt;&lt;span style=&quot;background-color: transparent; color: light-dark(rgb(0, 0, 0), rgb(255, 255, 255)); text-align: left;&quot;&gt;&lt;b&gt;Role&lt;/b&gt;&lt;/span&gt;&lt;/div&gt;&lt;div style=&quot;text-align: center;&quot;&gt;&lt;span style=&quot;background-color: transparent; color: light-dark(rgb(0, 0, 0), rgb(255, 255, 255)); text-align: left;&quot;&gt;—&lt;/span&gt;&lt;span style=&quot;background-color: transparent; color: light-dark(rgb(0, 0, 0), rgb(255, 255, 255)); text-align: left;&quot;&gt;—&lt;/span&gt;&lt;span style=&quot;text-align: left;&quot;&gt;—&lt;/span&gt;&lt;span style=&quot;background-color: transparent; color: light-dark(rgb(0, 0, 0), rgb(255, 255, 255)); text-align: left;&quot;&gt;—&lt;/span&gt;&lt;span style=&quot;background-color: transparent; color: light-dark(rgb(0, 0, 0), rgb(255, 255, 255)); text-align: left;&quot;&gt;—&lt;/span&gt;&lt;span style=&quot;background-color: transparent; color: light-dark(rgb(0, 0, 0), rgb(255, 255, 255)); text-align: left;&quot;&gt;—&lt;/span&gt;&lt;span style=&quot;background-color: transparent; color: light-dark(rgb(0, 0, 0), rgb(255, 255, 255)); text-align: left;&quot;&gt;—&lt;/span&gt;&lt;span style=&quot;background-color: transparent; color: light-dark(rgb(0, 0, 0), rgb(255, 255, 255)); text-align: left;&quot;&gt;—&lt;/span&gt;&lt;span style=&quot;background-color: transparent; color: light-dark(rgb(0, 0, 0), rgb(255, 255, 255)); text-align: left;&quot;&gt;—&lt;/span&gt;&lt;/div&gt;ADMIN&lt;/div&gt;&lt;div&gt;THIRDPARTY&lt;/div&gt;&lt;div&gt;ACCOUNTHOLDER&lt;/div&gt;&lt;div&gt;&lt;br&gt;&lt;/div&gt;" style="shape=rectangle;whiteSpace=wrap;html=1;rounded=0;strokeWidth=1;fillColor=#f8cecc;strokeColor=#b85450;align=left;spacingLeft=10;spacingRight=10;" vertex="1" parent="1">
          <mxGeometry x="480" y="755" width="140" height="125" as="geometry" />
        </mxCell>
        <mxCell id="dZ8dyuiowuK2YCym3EqC-31" value="&lt;div style=&quot;text-align: center;&quot;&gt;&lt;b style=&quot;background-color: transparent; color: light-dark(rgb(0, 0, 0), rgb(255, 255, 255));&quot;&gt;«enum»&amp;nbsp;&lt;/b&gt;&lt;/div&gt;&lt;div&gt;&lt;div style=&quot;text-align: center;&quot;&gt;&lt;b style=&quot;background-color: transparent; color: light-dark(rgb(0, 0, 0), rgb(255, 255, 255));&quot;&gt;AccountStatus&lt;/b&gt;&lt;/div&gt;—&lt;span style=&quot;background-color: transparent; color: light-dark(rgb(0, 0, 0), rgb(255, 255, 255));&quot;&gt;—&lt;/span&gt;&lt;span style=&quot;background-color: transparent; color: light-dark(rgb(0, 0, 0), rgb(255, 255, 255));&quot;&gt;—&lt;/span&gt;&lt;span style=&quot;background-color: transparent; color: light-dark(rgb(0, 0, 0), rgb(255, 255, 255));&quot;&gt;—&lt;/span&gt;&lt;span style=&quot;background-color: transparent; color: light-dark(rgb(0, 0, 0), rgb(255, 255, 255));&quot;&gt;—&lt;/span&gt;&lt;span style=&quot;background-color: transparent; color: light-dark(rgb(0, 0, 0), rgb(255, 255, 255));&quot;&gt;—&lt;/span&gt;&lt;span style=&quot;background-color: transparent; color: light-dark(rgb(0, 0, 0), rgb(255, 255, 255));&quot;&gt;—&lt;/span&gt;&lt;br&gt;FROZEN&lt;/div&gt;&lt;div&gt;ACTIVE&lt;/div&gt;" style="shape=rectangle;whiteSpace=wrap;html=1;rounded=0;strokeWidth=1;fillColor=#f8cecc;strokeColor=#b85450;align=left;spacingLeft=10;spacingRight=10;" vertex="1" parent="1">
          <mxGeometry x="650" y="755" width="110" height="125" as="geometry" />
        </mxCell>
        <mxCell id="dZ8dyuiowuK2YCym3EqC-32" value="&lt;h1&gt;&lt;font face=&quot;Courier New&quot; style=&quot;font-size: 22px; color: rgb(255, 255, 255);&quot;&gt;&lt;i style=&quot;background-color: rgb(128, 128, 128);&quot;&gt;enums&lt;/i&gt;&lt;/font&gt;&lt;/h1&gt;" style="text;html=1;align=center;verticalAlign=middle;whiteSpace=wrap;rounded=0;" vertex="1" parent="1">
          <mxGeometry x="520" y="700" width="80" height="30" as="geometry" />
        </mxCell>
        <mxCell id="dZ8dyuiowuK2YCym3EqC-40" value="creates" style="endArrow=open;dashed=1;strokeWidth=1;exitX=0.5;exitY=1;exitDx=0;exitDy=0;entryX=0.5;entryY=0;entryDx=0;entryDy=0;fillColor=#d5e8d4;strokeColor=#82b366;" edge="1" parent="1" source="Admin" target="ThirdParty">
          <mxGeometry x="0.0073" relative="1" as="geometry">
            <mxPoint x="390" y="220" as="sourcePoint" />
            <mxPoint x="540" y="299" as="targetPoint" />
            <mxPoint as="offset" />
          </mxGeometry>
        </mxCell>
        <mxCell id="dZ8dyuiowuK2YCym3EqC-41" value="creates" style="endArrow=open;dashed=1;strokeWidth=1;exitX=0.25;exitY=1;exitDx=0;exitDy=0;entryX=0.092;entryY=-0.011;entryDx=0;entryDy=0;entryPerimeter=0;fillColor=#d5e8d4;strokeColor=#82b366;" edge="1" parent="1" source="Admin" target="AccountHolder">
          <mxGeometry x="0.0073" relative="1" as="geometry">
            <mxPoint x="670" y="320" as="sourcePoint" />
            <mxPoint x="715" y="375" as="targetPoint" />
            <mxPoint as="offset" />
          </mxGeometry>
        </mxCell>
        <mxCell id="dZ8dyuiowuK2YCym3EqC-49" value="&lt;div style=&quot;text-align: center;&quot;&gt;&lt;b style=&quot;background-color: transparent; color: light-dark(rgb(0, 0, 0), rgb(255, 255, 255));&quot;&gt;PersonalData&lt;/b&gt;&lt;/div&gt;&lt;div style=&quot;text-align: center;&quot;&gt;&lt;span style=&quot;background-color: transparent; color: light-dark(rgb(0, 0, 0), rgb(255, 255, 255));&quot;&gt;———————&lt;/span&gt;&lt;/div&gt;&lt;div style=&quot;&quot;&gt;&lt;span style=&quot;background-color: transparent; color: light-dark(rgb(0, 0, 0), rgb(255, 255, 255));&quot;&gt;street: String&lt;/span&gt;&lt;/div&gt;city: String&lt;br&gt;country: String" style="shape=rectangle;whiteSpace=wrap;html=1;rounded=0;strokeWidth=1;fillColor=#fff2cc;strokeColor=#d6b656;align=left;spacingLeft=10;spacingRight=10;" vertex="1" parent="1">
          <mxGeometry x="320" y="560" width="100" height="120" as="geometry" />
        </mxCell>
        <mxCell id="dZ8dyuiowuK2YCym3EqC-50" value="mailingAddress (1..1)" style="endArrow=oval;endFill=1;dashed=1;strokeWidth=1;exitX=1;exitY=0.5;exitDx=0;exitDy=0;entryX=0;entryY=0.5;entryDx=0;entryDy=0;" edge="1" parent="1" source="dZ8dyuiowuK2YCym3EqC-49" target="AccountHolder">
          <mxGeometry relative="1" as="geometry">
            <mxPoint x="890" y="620" as="sourcePoint" />
            <mxPoint x="1050" y="620" as="targetPoint" />
            <Array as="points" />
          </mxGeometry>
        </mxCell>
      </root>
    </mxGraphModel>
  </diagram>
</mxfile>
